# xmcd CD database file
#
# Track frame offsets:
#	150
#	28444
#	47767
#	72123
#	96607
#	119202
#	138699
#	161449
#	182750
#	200010
#	217668
#	238457
#	260276
#	292187
#
# Disc length: 4440 seconds
#
# Revision: 0
# Processed by: cddbd v1.5.2PL0 Copyright (c) Steve Scherf et al.
# Submitted via: CD2WAV32(JP) R3.22
#
DISCID=e911560e
DTITLE=Various Artist - THE GREATEST HITS -小室哲哉作品集 a- [Disc 2]
DYEAR=2006
DGENRE=JPop
TTITLE0=CAN YOU CELEBRATE?／安室奈美恵
TTITLE1=by myself／hitomi
TTITLE2=卒業／渡辺美里
TTITLE3=DEPARTURES／globe
TTITLE4=alone in my room／鈴木あみ
TTITLE5=恋しさと せつなさと 心強さと／篠原涼子 with t. komuro
TTITLE6=DIVE INTO YOUR BODY／TM NETWORK
TTITLE7=NO TITLIST／宮沢りえ
TTITLE8=JINGI・愛してもらいます／中山美穂
TTITLE9=Good Morning-Call／小泉今日子
TTITLE10=happy wake up!／観月ありさ
TTITLE11=BOY MEETS GIRL／TRF
TTITLE12=Missing You／Backstreet Boys
TTITLE13=data
EXTD=
EXTT0=
EXTT1=
EXTT2=
EXTT3=
EXTT4=
EXTT5=
EXTT6=
EXTT7=
EXTT8=
EXTT9=
EXTT10=
EXTT11=
EXTT12=
EXTT13=
PLAYORDER=
